
<svg width="14" height="9" viewBox="0 0 14 9" fill="none" xmlns="http://www.w3.org/2000/svg">
<path d="M0.717557 2.5458L6.33588 8.16412C6.45801 8.28626 6.59033 8.37257 6.73282 8.42305C6.87532 8.47435 7.02799 8.5 7.19084 8.5C7.35369 8.5 7.50636 8.47435 7.64885 8.42305C7.79135 8.37257 7.92366 8.28626 8.0458 8.16412L13.6641 2.5458C13.888 2.32188 14 2.0369 14 1.69084C14 1.34478 13.888 1.0598 13.6641 0.835878C13.4402 0.61196 13.1552 0.5 12.8092 0.5C12.4631 0.5 12.1781 0.61196 11.9542 0.835878L7.19084 5.59924L2.42748 0.835878C2.20356 0.61196 1.91857 0.5 1.57252 0.5C1.22646 0.5 0.941476 0.61196 0.717557 0.835878C0.493639 1.0598 0.381678 1.34478 0.381678 1.69084C0.381678 2.0369 0.493639 2.32188 0.717557 2.5458Z" fill="#5A6872"/>
</svg>
