<svg width="20" height="20" viewBox="0 0 20 20" fill="none" xmlns="http://www.w3.org/2000/svg">
<path d="M19.0042 8.8305C18.901 8.4082 18.7049 8.01404 18.4318 7.67619C18.1592 7.33886 17.8123 7.06908 17.4182 6.88789C17.0254 6.70121 16.5956 6.60501 16.1607 6.60635H12.0033L12.2473 5.66789C12.4737 4.77464 12.3876 3.8308 12.0033 2.99327C11.6115 2.15936 10.9504 1.48166 10.1264 1.06942L9.09407 0.562653C8.87813 0.455916 8.64049 0.400391 8.39961 0.400391C8.15873 0.400391 7.92109 0.455916 7.70515 0.562653C7.48943 0.674215 7.30297 0.834953 7.16084 1.03188C7.01683 1.22478 6.92328 1.45059 6.88869 1.68881L6.00653 6.99112C5.8638 7.12143 5.73486 7.26609 5.62176 7.42281C5.40761 7.16362 5.13985 6.95391 4.8369 6.80811C4.53395 6.6623 4.203 6.58387 3.86684 6.5782H2.75946C2.13224 6.5782 1.53071 6.82736 1.0872 7.27086C0.643692 7.71437 0.394531 8.3159 0.394531 8.94312V16.723C0.394531 17.3502 0.643692 17.9517 1.0872 18.3952C1.53071 18.8387 2.13224 19.0879 2.75946 19.0879H3.86684C4.21463 19.0894 4.55841 19.0135 4.87329 18.8658C5.18816 18.7181 5.46626 18.5023 5.68746 18.2339C6.23861 18.7817 6.98438 19.0888 7.76146 19.0879H14.8187C15.5007 19.0972 16.1645 18.8682 16.6956 18.4404C17.2328 18.0127 17.5991 17.4068 17.7279 16.7324L19.0605 10.0787C19.1295 9.66326 19.1103 9.23801 19.0042 8.8305ZM4.8053 16.7605C4.8053 17.0094 4.70643 17.2481 4.53043 17.4241C4.35444 17.6001 4.11574 17.699 3.86684 17.699H2.75946C2.51056 17.699 2.27186 17.6001 2.09586 17.4241C1.91987 17.2481 1.82099 17.0094 1.82099 16.7605V8.98066C1.82099 8.73176 1.91987 8.49306 2.09586 8.31706C2.27186 8.14107 2.51056 8.0422 2.75946 8.0422H3.86684C4.11574 8.0422 4.35444 8.14107 4.53043 8.31706C4.70643 8.49306 4.8053 8.73176 4.8053 8.98066V16.7605Z" fill="#00A413"/>
</svg>
