<svg width="20" height="20" viewBox="0 0 20 20" fill="none" xmlns="http://www.w3.org/2000/svg">
<path d="M0.658364 10.6578C0.761594 11.0801 0.957734 11.4742 1.23083 11.8121C1.50344 12.1494 1.85031 12.4192 2.24437 12.6004C2.63723 12.7871 3.06695 12.8833 3.50191 12.8819L7.65929 12.8819L7.41529 13.8204C7.18886 14.7136 7.27496 15.6575 7.65929 16.495C8.05106 17.3289 8.71223 18.0066 9.53622 18.4189L10.5685 18.9256C10.7845 19.0324 11.0221 19.0879 11.263 19.0879C11.5039 19.0879 11.7415 19.0324 11.9574 18.9256C12.1732 18.8141 12.3596 18.6533 12.5018 18.4564C12.6458 18.2635 12.7393 18.0377 12.7739 17.7995L13.6561 12.4972C13.7988 12.3669 13.9277 12.2222 14.0408 12.0655C14.255 12.3247 14.5227 12.5344 14.8257 12.6802C15.1286 12.826 15.4596 12.9044 15.7958 12.9101L16.9031 12.9101C17.5304 12.9101 18.1319 12.6609 18.5754 12.2174C19.0189 11.7739 19.2681 11.1724 19.2681 10.5452L19.2681 2.76531C19.2681 2.13809 19.0189 1.53657 18.5754 1.09306C18.1319 0.649547 17.5304 0.400387 16.9031 0.400387L15.7958 0.400387C15.448 0.398891 15.1042 0.474735 14.7893 0.622436C14.4744 0.770135 14.1963 0.985994 13.9751 1.25439C13.424 0.70659 12.6782 0.399511 11.9011 0.400386L4.84391 0.400386C4.16194 0.391047 3.49811 0.620066 2.96698 1.04792C2.42975 1.47553 2.06351 2.08149 1.93467 2.75593L0.602057 9.40962C0.533114 9.82502 0.552296 10.2503 0.658364 10.6578ZM14.8573 2.72777C14.8573 2.47888 14.9562 2.24017 15.1322 2.06418C15.3082 1.88818 15.5469 1.78931 15.7958 1.78931L16.9031 1.78931C17.152 1.78931 17.3907 1.88818 17.5667 2.06418C17.7427 2.24018 17.8416 2.47888 17.8416 2.72777L17.8416 10.5076C17.8416 10.7565 17.7427 10.9952 17.5667 11.1712C17.3907 11.3472 17.152 11.4461 16.9031 11.4461L15.7958 11.4461C15.5469 11.4461 15.3082 11.3472 15.1322 11.1712C14.9562 10.9952 14.8573 10.7565 14.8573 10.5076L14.8573 2.72777Z" fill="#CD0000"/>
</svg>
